<svg width="18" height="24" viewBox="0 0 18 24" fill="none" xmlns="http://www.w3.org/2000/svg">
<g id="&#240;&#159;&#166;&#134; icon &#34;Alternate Map Marker&#34;">
<path id="Vector" d="M8.48624 23.2313C7.25933 21.4526 6.21577 19.9661 5.32848 18.7021C3.74117 16.4409 2.654 14.8922 1.91195 13.6583C1.33981 12.707 0.991729 11.9721 0.783373 11.2685C0.576154 10.5688 0.5 9.87594 0.5 9C0.5 4.30556 4.30556 0.5 9 0.5C13.6944 0.5 17.5 4.30556 17.5 9C17.5 9.87594 17.4238 10.5688 17.2166 11.2685C17.0083 11.9721 16.6602 12.707 16.0881 13.6583C15.346 14.8922 14.2588 16.4409 12.6715 18.7021C11.7843 19.966 10.7407 21.4526 9.51383 23.2312C9.26573 23.5896 8.73436 23.5896 8.48624 23.2313ZM9 13.25C11.3472 13.25 13.25 11.3472 13.25 9C13.25 6.65278 11.3472 4.75 9 4.75C6.65278 4.75 4.75 6.65278 4.75 9C4.75 11.3472 6.65278 13.25 9 13.25Z" stroke="#2059B7"/>
</g>
</svg>
