<svg width="20" height="20" viewBox="0 0 20 20" fill="none" xmlns="http://www.w3.org/2000/svg">
<g id="padlock-11731 1">
<g id="Group">
<path id="Vector" d="M15.5214 19.8677H4.45617C3.56663 19.8677 2.84283 19.1439 2.84283 18.2542V9.29223C2.84283 8.40269 3.56663 7.67889 4.45617 7.67889H15.5214C16.411 7.67889 17.1348 8.40269 17.1348 9.29223V18.2542C17.1348 19.1439 16.411 19.8677 15.5214 19.8677ZM4.45617 8.11796C3.80855 8.11796 3.2819 8.64461 3.2819 9.29223V18.2542C3.2819 18.9018 3.80855 19.4286 4.45617 19.4286H15.5214C16.1688 19.4286 16.6957 18.902 16.6957 18.2542V9.29223C16.6957 8.64461 16.169 8.11796 15.5214 8.11796H4.45617Z" fill="#262626"/>
<path id="Vector_2" d="M9.9888 16.8314C9.44787 16.8314 9.00771 16.3912 9.00771 15.8501V13.9079C8.51377 13.5292 8.28238 12.9033 8.41498 12.2798C8.54362 11.6744 9.03735 11.1824 9.64347 11.0557C10.1297 10.9536 10.6259 11.0722 11.0043 11.38C11.3828 11.6875 11.5999 12.1437 11.5999 12.6309C11.5999 13.1347 11.3666 13.6038 10.9699 13.9079V15.8501C10.9699 16.3912 10.5297 16.8314 9.9888 16.8314ZM9.9855 11.4592C9.90186 11.4592 9.81734 11.4678 9.73326 11.4853C9.29464 11.5771 8.93746 11.9332 8.84438 12.3712C8.7412 12.8563 8.93856 13.3432 9.34755 13.6111C9.40945 13.6517 9.44677 13.7206 9.44677 13.7946V15.8498C9.44677 16.1486 9.69002 16.3921 9.9888 16.3921C10.2876 16.3921 10.5308 16.1488 10.5308 15.8498V13.7946C10.5308 13.7206 10.5681 13.6517 10.63 13.6108C10.9624 13.3933 11.1609 13.0267 11.1609 12.6306C11.1609 12.2761 11.0028 11.9444 10.7273 11.7205C10.517 11.5497 10.256 11.4592 9.9855 11.4592Z" fill="#262626"/>
<path id="Vector_3" d="M14.7028 8.11796C14.5814 8.11796 14.4833 8.01961 14.4833 7.89842V4.65573C14.4833 2.39126 12.641 0.548956 10.3765 0.548956H9.60113C7.33667 0.548956 5.49436 2.39126 5.49436 4.65573V5.36657H6.77093V5.24934C6.77093 3.36137 8.30677 1.82553 10.1947 1.82553C11.8555 1.82553 13.2067 3.17675 13.2067 4.8375V7.89842C13.2067 8.01961 13.1086 8.11796 12.9872 8.11796C12.8658 8.11796 12.7677 8.01961 12.7677 7.89842V4.8375C12.7677 3.41889 11.6134 2.26459 10.1947 2.26459C8.54892 2.26459 7.21 3.60351 7.21 5.24934V5.5861C7.21 5.70728 7.11165 5.80563 6.99047 5.80563H5.27483C5.15365 5.80563 5.0553 5.70728 5.0553 5.5861V4.65573C5.0553 2.14912 7.09452 0.109894 9.60113 0.109894H10.3765C12.8831 0.109894 14.9223 2.14912 14.9223 4.65573V7.89842C14.9223 8.01961 14.824 8.11796 14.7028 8.11796Z" fill="#262626"/>
</g>
</g>
</svg>
